<svg xmlns="http://www.w3.org/2000/svg" viewBox="0 0 1488 1287"><path fill="#fbf405" stroke="#fbf405" d="M778.412 8.25A56350.02 56350.02 0 0 1 769.995 23c-2.042 3.575-4.973 8.75-6.514 11.5-1.541 2.75-3.338 5.675-3.992 6.5-.655.825-2.72 4.425-4.59 8-1.869 3.575-3.634 6.725-3.922 7-.485.464-9.926 16.637-15.761 27-1.394 2.475-3.587 6.179-4.875 8.23-1.288 2.052-2.341 3.972-2.341 4.268 0 .295-2.25 4.165-5 8.599s-5 8.376-5 8.76c0 2.153-3.304 5.279-4.222 3.995-.72-1.007-.814-.882-.369.488.665 2.049.019 3.298-16.39 31.66-6.205 10.725-12.411 21.525-13.791 24-1.381 2.475-5.521 9.675-9.201 16-3.68 6.325-7.819 13.525-9.199 16-1.379 2.475-7.14 12.375-12.802 22-5.663 9.625-11.416 19.525-12.786 22-1.37 2.475-4.849 8.55-7.73 13.5-2.882 4.95-8.608 14.85-12.725 22-21.56 37.443-24.125 41.569-25.046 40.289-.65-.904-.745-.729-.317.585.359 1.104-.359 3.57-1.749 6A7915.02 7915.02 0 0 1 581.517 349a4317.727 4317.727 0 0 0-11.489 20 726.679 726.679 0 0 1-6.86 11.794c-1.742 2.912-3.168 5.509-3.168 5.771 0 .263-1.061 2.156-2.357 4.206-4.387 6.938-13.643 22.985-13.643 23.651 0 .364-.474 1.206-1.053 1.87-1.108 1.272-17.608 29.614-23.698 40.708-1.963 3.575-4.847 8.381-6.409 10.68-1.562 2.299-2.84 4.48-2.84 4.846 0 .366-.831 1.86-1.847 3.32-1.016 1.46-3.202 5.129-4.857 8.154-1.655 3.025-9.755 17.2-17.999 31.5-8.245 14.3-17.811 30.95-21.258 37-3.448 6.05-8.39 14.6-10.983 19-4.684 7.948-11.973 20.447-28.454 48.796-4.731 8.138-8.602 14.994-8.602 15.235 0 .242-1.279 2.583-2.843 5.204-10.354 17.355-44.036 75.488-52.588 90.765-5.939 10.609-15.058 26.365-17.074 29.5-1.237 1.925-3.543 5.954-5.123 8.953-1.579 2.999-3.233 5.924-3.675 6.5-1.037 1.354-18.801 32.079-23.442 40.547-1.96 3.575-4.341 7.625-5.292 9-.951 1.375-2.682 4.188-3.846 6.25A1930.923 1930.923 0 0 1 298 839.5a8222.21 8222.21 0 0 0-3.852 6.75c-4.38 7.688-28.655 49.816-32.124 55.75C250.199 922.226 248 926.151 248 927.031c0 .533-.45.969-1 .969s-1 .409-1 .91c0 .5-4.57 8.713-10.155 18.25-5.586 9.537-11.25 19.297-12.588 21.69a331.465 331.465 0 0 1-5.272 9c-1.562 2.557-4.288 7.35-6.058 10.65-3.624 6.757-11.534 20.526-20.968 36.5-10.495 17.771-17.959 31.268-17.959 32.473 0 .84-.398 1.527-.883 1.527-.486 0-1.157.788-1.491 1.75-.334.963-1.665 3.55-2.958 5.75-1.294 2.2-5.723 9.85-9.844 17-8.657 15.021-12.8 21.934-17.48 29.169-1.839 2.844-3.344 5.39-3.344 5.66 0 .269-2.888 5.252-6.417 11.072-3.53 5.821-6.104 10.777-5.722 11.013 1.153.713 24.972-5.032 44.639-10.765 25.977-7.573 30.957-9.023 42-12.23 6.6-1.916 12.9-3.879 14-4.361 1.1-.483 11.9-4.089 24-8.014 12.1-3.925 23.418-7.791 25.151-8.59 1.733-.8 3.581-1.454 4.106-1.454 1.071 0 57.623-20.455 60.743-21.971 1.1-.534 5.047-2.093 8.771-3.463 3.725-1.371 8.225-3.13 10-3.909 1.776-.778 10.654-4.364 19.729-7.968s21.45-8.642 27.5-11.197c6.05-2.554 13.7-5.772 17-7.152 6.898-2.883 19.93-8.573 26.5-11.571 2.475-1.129 9.225-4.179 15-6.778 10.253-4.613 32.992-15.104 46-21.222 24.706-11.62 76.035-37.806 105-53.567 36.694-19.967 36.348-19.775 55-30.558 9.075-5.246 17.044-10.012 17.708-10.591.664-.579 1.455-1.053 1.758-1.053.302 0 5.781-3.15 12.174-7s11.977-7 12.409-7c.431 0 .934-.379 1.118-.843.279-.706 6.231-4.444 27.276-17.13 1.344-.811 2.747-1.17 3.118-.799 2.401 2.4.389 62.028-2.715 80.515l-1.049 6.243-17.148 8.722c-63.741 32.419-114.399 56.081-162.335 75.824-4.503 1.854-9.003 3.805-10 4.336-.998.53-11.039 4.568-22.314 8.972-38.092 14.881-53.203 20.511-81 30.18-10.725 3.73-20.625 7.223-22 7.761-1.375.539-2.833 1.046-3.24 1.127-.406.08-1.306.35-2 .598-.693.248-6.435 2.081-12.76 4.073-6.325 1.991-17.125 5.408-24 7.592-15.053 4.782-32.766 10.051-47 13.981a3853.096 3853.096 0 0 0-16 4.453c-9.905 2.799-59.237 15.124-71 17.739-22.211 4.937-30.793 6.771-33.136 7.08-1.3.171-3.039.555-3.864.852-5.309 1.913-84.888 15.745-99.222 17.247-7.329.768-7.596.955-11.328 7.976l-2.546 4.788 14.298-.646c26.498-1.198 56.125-3.985 108.298-10.188 2.2-.262 5.35-.702 7-.979 8.844-1.482 15.07-2.455 25-3.904 24.75-3.612 82.688-14.723 107.5-20.617 23.792-5.651 64.924-15.973 67.396-16.913 5.201-1.978 5.855-1.451 3.624 2.92-1.111 2.178-2.02 4.791-2.02 5.807 0 2.232 13.323 9.409 32 17.239 6.875 2.882 12.622 5.344 12.77 5.471.214.182-19.121 4.213-29.27 6.102-1.1.205-4.025.809-6.5 1.343-2.475.534-9.675 1.905-16 3.046-6.325 1.141-13.75 2.513-16.5 3.049-19.628 3.823-60.909 9.848-95.5 13.939-32.889 3.89-53.932 5.835-82 7.581-5.225.325-11.75.792-14.5 1.037-12.687 1.131-93.191 1.562-107.922.578-17.862-1.194-16.228-1.724-20.589 6.673-1.336 2.571-4.129 7.495-6.209 10.943-2.079 3.447-3.78 6.446-3.78 6.664 0 .219 3.487.698 7.75 1.065 4.262.367 14.725 1.325 23.25 2.129 35.029 3.301 58.164 5.444 69.5 6.437 6.6.578 15.6 1.449 20 1.937 4.4.487 11.6 1.144 16 1.46 4.4.316 14.075 1.219 21.5 2.005 7.425.787 19.125 1.92 26 2.518a7317.842 7317.842 0 0 1 54.5 4.995 7385.62 7385.62 0 0 0 42.5 3.985c17.95 1.626 42.522 3.942 53.5 5.043 5.5.551 15.85 1.491 23 2.089 7.15.598 17.05 1.485 22 1.97 4.95.486 16.65 1.556 26 2.377 9.35.821 18.575 1.686 20.5 1.923 1.925.237 6.65.704 10.5 1.038 18.824 1.634 76.39 7.027 86 8.058 2.75.294 12.65 1.205 22 2.024 9.35.818 21.725 1.945 27.5 2.504 19.038 1.842 32.355 3.101 43 4.063l21.5 1.943c11.165 1.008 32.234 3.041 54 5.211 19.3 1.924 18.568 1.958 68.5-3.178 10.175-1.046 23.9-2.402 30.5-3.012 6.6-.611 15.825-1.518 20.5-2.016 4.675-.497 13.9-1.395 20.5-1.994s15.825-1.5 20.5-2.003c14.768-1.587 27.972-2.902 45.5-4.53 9.35-.869 23.075-2.226 30.5-3.017 7.425-.791 18.9-1.897 25.5-2.457 13.5-1.147 14.315-1.226 42-4.025 11-1.113 26.975-2.674 35.5-3.47 8.525-.796 19.55-1.906 24.5-2.467 4.95-.561 14.175-1.487 20.5-2.056 6.325-.57 15.325-1.464 20-1.989 4.675-.524 13.9-1.429 20.5-2.011 15.918-1.404 28.109-2.591 51-4.964a4501.371 4501.371 0 0 1 35.5-3.521c9.075-.852 20.888-1.987 26.25-2.523 16.359-1.633 27.759-2.748 65.75-6.432 20.075-1.947 43.025-4.198 51-5.002 7.975-.804 19.675-1.935 26-2.511 10.191-.93 21.424-2.112 34.75-3.658 4.264-.494 5.021-1.153 3.353-2.92-.493-.522-7.859-13.1-16.369-27.95-8.509-14.85-18.52-32.175-22.245-38.5-3.726-6.325-7.765-13.3-8.976-15.5-1.211-2.2-4.819-8.5-8.016-14-3.198-5.5-11.883-20.574-19.3-33.498-7.417-12.925-14.466-25.075-15.664-27-1.199-1.926-2.474-4.177-2.835-5.002-.361-.825-1.78-3.3-3.155-5.5-1.374-2.2-3.649-6.152-5.054-8.783-1.406-2.631-4.116-7.222-6.023-10.202-1.906-2.981-3.466-5.659-3.466-5.952 0-.293-1.314-2.677-2.919-5.298-3.174-5.181-26.771-45.966-30.818-53.265a336.212 336.212 0 0 0-5.216-9c-1.497-2.475-4.527-7.65-6.733-11.5a3244.18 3244.18 0 0 0-8.081-14c-2.238-3.85-5.119-8.848-6.401-11.107-3.858-6.794-25.818-44.779-26.821-46.393-2.715-4.368-9.011-15.256-9.011-15.585 0-.209-1.726-3.2-3.835-6.647-2.109-3.448-5.395-9.193-7.303-12.768-6.183-11.588-8.015-14.155-9.652-13.527-.839.322-7.192 4.244-14.118 8.716-17.752 11.461-17.992 11.613-34.092 21.532-31.792 19.586-62.92 38.262-71 42.597-1.925 1.033-5.525 3.116-8 4.63-2.475 1.514-7.2 4.239-10.5 6.056-3.3 1.817-7.575 4.195-9.5 5.284-1.925 1.09-8 4.43-13.5 7.423-5.5 2.994-10.675 5.84-11.5 6.325-.825.484-6.675 3.674-13 7.088s-13.075 7.091-15 8.172c-17.749 9.961-38.124 19.715-40.174 19.232-2.225-.525-17.294-2.831-39.826-6.096-15.952-2.311-35.651-4.332-66.212-6.792-15.242-1.227-27.972-2.491-28.289-2.808-.503-.502 18.466-11.832 19.81-11.832.486 0 17.228-9.407 39.691-22.303a4897.969 4897.969 0 0 1 17-9.715c13.593-7.712 23.035-13.301 39.24-23.228 31.759-19.453 47.262-29.113 48.441-30.182.651-.59 4.839-3.322 9.307-6.072 9.646-5.937 23.703-15.004 26.512-17.101 1.1-.82 5.218-3.609 9.15-6.196 16.466-10.831 26.007-17.243 28.474-19.134 1.444-1.107 5.944-4.266 10-7.02 18.732-12.714 51.345-36.779 74.983-55.328l2.608-2.046-3.981-7.024c-2.189-3.863-7.525-13.081-11.857-20.484-4.332-7.404-7.877-13.79-7.877-14.191 0-.402-.564-1.199-1.253-1.771-.689-.572-2.749-3.889-4.579-7.372-1.829-3.483-4.425-8.133-5.768-10.333-1.343-2.2-2.706-4.562-3.028-5.25-.938-2.002-2.223-1.497-6.681 2.629-2.305 2.134-7.116 6.273-10.691 9.197-3.575 2.925-6.725 5.567-7 5.871-.275.304-3.196 2.803-6.491 5.553-10.094 8.423-10.739 8.967-11.892 10.023-1.784 1.633-20.254 16.422-30.617 24.514-5.225 4.081-9.725 7.665-10 7.966-.275.3-5 3.91-10.5 8.022-5.5 4.111-10.225 7.712-10.5 8.002-2.046 2.155-58.459 43.078-61.989 44.967-1.02.546-2.453 1.578-3.183 2.294-2.573 2.52-51.154 35.344-76.345 51.581-7.141 4.603-15.233 9.849-17.983 11.659-8.815 5.801-26.627 16.472-27.494 16.472-.462 0-.989.361-1.173.801-.42 1.01-23.686 15.199-24.921 15.199-.501 0-.912.378-.912.839 0 .934-5.031 3.464-5.652 2.842-.216-.216.268-4.845 1.077-10.287 3.771-25.368 4.256-51.398 1.442-77.367-.634-5.846-.668-9.593-.09-9.786.515-.172 4.767-3.109 9.45-6.527 4.682-3.417 9.584-6.99 10.893-7.938 7.893-5.715 43.465-32.283 43.88-32.772.275-.324 4.325-3.493 9-7.044 8.178-6.21 15.105-11.723 31.75-25.266 4.263-3.468 10.45-8.493 13.75-11.166 7.979-6.463 12.191-9.998 30.341-25.463 8.437-7.189 15.819-12.775 16.404-12.413.585.361.776.191.424-.379-.352-.569 7.116-7.92 16.595-16.334 9.48-8.414 20.161-18.09 23.736-21.502 3.575-3.412 9.848-9.293 13.939-13.07 4.092-3.777 15.307-14.517 24.923-23.867 9.616-9.35 18.306-17.788 19.311-18.75 2.316-2.218 2.31-4.247-.02-7.596-1.016-1.46-3.202-5.129-4.857-8.154-6.884-12.584-26.649-46.618-27.921-48.079-.756-.868-1.375-1.943-1.375-2.389 0-.446-1.418-3.111-3.152-5.921-1.734-2.811-4.271-7.109-5.639-9.551-1.367-2.443-3.324-5.34-4.347-6.439-1.024-1.099-1.862-2.521-1.862-3.16 0-.638-1.237-2.938-2.75-5.109-2.994-4.298-3.899-5.815-8.145-13.647-1.552-2.863-5.586-9.828-8.964-15.479-3.377-5.65-6.141-10.675-6.141-11.166 0-.491-.338-1.043-.75-1.227-.412-.183-1.698-2.133-2.857-4.333-2.449-4.649-18.875-33.283-20.364-35.5-.555-.825-1.975-3.3-3.156-5.5s-2.986-5.073-4.01-6.385c-1.025-1.312-1.863-2.941-1.863-3.62 0-.975-12.652-23.616-23.084-41.308-.871-1.478-2.831-4.937-4.355-7.687-1.523-2.75-3.21-5.541-3.748-6.202-.538-.661-.687-2.236-.33-3.5.446-1.583.356-1.877-.289-.946-.928 1.337-4.194-1.899-4.194-4.155 0-.472-1.516-3.184-3.368-6.028-2.791-4.284-16.972-28.727-25.697-44.292-1.195-2.132-4.701-8.152-7.79-13.377-3.089-5.225-6.758-11.525-8.153-14a497.748 497.748 0 0 0-4.514-7.838c-1.088-1.836-3.955-6.786-6.371-11a2116.836 2116.836 0 0 0-9.25-15.926c-2.671-4.545-4.857-8.492-4.857-8.771 0-.279-1.057-2.186-2.348-4.236-7.141-11.341-10.75-18.262-10.085-19.338.416-.673.32-.939-.218-.607-.528.327-5.435-7.096-10.905-16.495a19632.964 19632.964 0 0 0-12.944-22.22 974.84 974.84 0 0 1-6.639-11.6c-4.581-8.145-6.763-11.956-14.937-26.095-18.383-31.799-22.408-38.656-24.571-41.856-1.294-1.915-2.353-3.812-2.353-4.215 0-.402-2.079-4.236-4.62-8.518C801.7 29.657 799.266 25.498 796.753 21 787.835 5.035 784.778 0 784 0c-.485 0-2.999 3.713-5.588 8.25M1078 615c-.901.582-1.025.975-.309.985.655.008 1.469-.435 1.809-.985.767-1.242.421-1.242-1.5 0m-80 72c-.901.582-1.025.975-.309.985.655.008 1.469-.435 1.809-.985.767-1.242.421-1.242-1.5 0M830.953 972.463c-4.957 2.582-5.737 3.804-11.527 18.037-8.64 21.237-29.755 64.162-37.058 75.337-2.07 3.166-1.591 3.318 3.64 1.16 2.471-1.02 9.442-3.752 15.492-6.072 12.501-4.794 31.53-12.399 36-14.386 1.65-.734 6.15-2.551 10-4.039 3.85-1.487 9.025-3.599 11.5-4.692 2.475-1.094 5.4-2.366 6.5-2.828 8.18-3.434 21.891-9.473 43-18.939 24.888-11.16 44.5-20.431 44.5-21.035 0-.41-1.913-1.251-4.25-1.869-2.337-.618-9.359-2.511-15.604-4.207-6.244-1.697-12.094-3.254-13-3.461-.905-.207-5.471-1.32-10.146-2.472-11.204-2.763-40.421-8.52-50.5-9.952-4.4-.625-10.438-1.566-13.417-2.091-7.791-1.372-10.03-1.149-15.13 1.509M725 1022.712c-.825.304-4.65 2.007-8.5 3.783-3.85 1.777-7.978 3.536-9.173 3.91-1.195.375-5.369 2.237-9.276 4.138-3.907 1.901-7.321 3.457-7.586 3.457-.46 0-22.801 9.139-26.965 11.031-3.021 1.373-31.6 12.679-40.858 16.164-42.644 16.054-46.638 17.482-89.642 32.049-19.043 6.451-45.806 14.799-74.98 23.39l-5.48 1.613 6.48 2.317c9.995 3.574 37.097 10.958 50.98 13.89a4434.58 4434.58 0 0 1 19.487 4.159c9.299 2.021 12.621 1.951 21.513-.454a5720.35 5720.35 0 0 1 21-5.607c42.497-11.267 70.955-19.764 117.891-35.202 10.806-3.554 10.482-3.211 15.652-16.581 2.609-6.748 5.353-13.684 6.098-15.414 4.001-9.298 16.486-47.401 15.49-47.276-.347.043-1.306.328-2.131.633" fill-rule="evenodd"/><path fill="#b5e631" stroke="#b5e631" d="M782.692 1.75c-1.131 1.99-38.89 67.496-53.175 92.25-6.19 10.725-21.25 36.825-33.468 58-21.953 38.048-29.979 51.901-39.107 67.5-2.575 4.4-10.886 18.8-18.469 32-7.584 13.2-16.815 29.175-20.514 35.5-3.7 6.325-7.623 13.075-8.719 15-3.089 5.425-22.307 38.729-39.239 68-8.431 14.575-21.034 36.4-28.007 48.5-6.973 12.1-15.3 26.5-18.505 32-3.205 5.5-7.481 12.925-9.501 16.5-4.614 8.163-57.325 99.362-64.445 111.5-2.904 4.95-11.482 19.8-19.062 33-7.58 13.2-16.572 28.725-19.981 34.5-3.41 5.775-7.334 12.525-8.721 15-2.271 4.052-17.845 31.061-41.807 72.5-4.77 8.25-15.421 26.7-23.669 41-8.248 14.3-17.617 30.5-20.819 36-3.202 5.5-7.469 12.925-9.481 16.5-2.012 3.575-5.923 10.325-8.69 15-2.768 4.675-10.341 17.725-16.831 29a9255.649 9255.649 0 0 1-16.751 29c-2.724 4.675-6.098 10.525-7.497 13-1.4 2.475-5.017 8.775-8.038 14a61814.124 61814.124 0 0 0-21.929 38c-9.04 15.675-19.719 34.125-23.73 41-4.011 6.875-8.189 14.075-9.284 16a5093.008 5093.008 0 0 1-10.622 18.406c-4.747 8.198-8.631 15.262-8.631 15.696 0 .927 6.445-1.245 20.995-7.076 48.828-19.567 119.611-55.157 176.769-88.88a7385.54 7385.54 0 0 1 13-7.659C441.925 919.143 527.18 860.652 585 815.11c34.937-27.518 93.183-75.707 98-81.079.275-.307 5.563-4.978 11.75-10.38 6.188-5.403 11.25-9.97 11.25-10.149 0-.18-1.735-3.403-3.856-7.164-2.121-3.761-9.169-16.513-15.663-28.338-6.493-11.825-13.002-23.525-14.463-26-20.021-33.907-36.371-78.2-40.53-109.801-8.861-67.317 19.891-146.023 84.669-231.774 4.038-5.347 8.89-11.79 10.781-14.318 8.914-11.922 33.752-41.561 52.458-62.601 20.445-22.995 84.044-88.706 73.572-76.015-1.357 1.646-2.729 3.221-3.049 3.5-.903.791-16.063 19.162-19.419 23.531-1.65 2.149-4.172 5.273-5.604 6.942-6.94 8.093-31.814 42.161-42.165 57.751-71.42 107.574-90.186 193.526-61.525 281.785 8.683 26.736 26.376 64.156 48.702 103 1.739 3.025 3.904 6.962 4.812 8.75.908 1.788 1.956 3.25 2.329 3.25 1.818 0 63.468-64.094 92.36-96.021 10.555-11.664 13.504-14.974 19.091-21.435 3.3-3.815 9.375-10.786 13.5-15.491l10.131-11.553c3.086-3.52 32.915-39.33 37.54-45.066 1.743-2.164 6.569-8.209 10.723-13.434 4.155-5.225 8.173-10.175 8.93-11 1.374-1.498 24.512-31.484 32.496-42.115l4.217-5.616-13.174-22.884c-12.502-21.715-23.21-40.203-30.342-52.385-1.771-3.025-9.424-16.3-17.007-29.5-7.583-13.2-16.801-29.175-20.484-35.5-3.684-6.325-15.386-26.575-26.005-45a26542.769 26542.769 0 0 0-32.073-55.5c-7.022-12.1-20.297-35.05-29.501-51-9.204-15.95-20.636-35.75-25.404-44C782.588-2.473 783.902-.38 782.692 1.75m274.538 501.04c-37.554 43.386-104.037 109.901-154.634 154.71-4.348 3.85-8.398 7.452-9 8.005-11.409 10.462-50.543 43.848-65.596 55.96-4.675 3.762-8.884 7.178-9.354 7.591-.47.414.511 4.283 2.179 8.598 13.606 35.195 18.669 63.802 18.642 105.346-.025 40.753-5.57 74.905-17.501 107.801-.658 1.816-.979 3.519-.713 3.785.267.267 7.856.713 16.866.991 118.148 3.65 222.831 20.074 302.618 47.479 134.763 46.286 132.831 108.55-4.737 152.733-105.389 33.848-278.296 48.144-431.483 35.675-9.891-.805-18.481-1.464-19.088-1.464-.608 0-3.973 3.713-7.479 8.25-6.899 8.931-38.875 48.045-43.94 53.75-3.303 3.72-2.696 1.328 1.015-4 .957-1.375 2.639-4.075 3.738-6 1.098-1.925 5.259-9.125 9.247-16 11.614-20.023 21.139-37.188 20.802-37.488-.172-.152-5.037-.803-10.812-1.445-77.097-8.572-151.535-26.274-197-46.849-20.163-9.124-20.572-9.937-1.917-3.81 34.487 11.327 76.562 20.01 125.917 25.985 24.982 3.024 72.315 6.592 87.582 6.602l7.081.005 10.59-21.75c36.719-75.418 57.054-138.778 65.393-203.75 2.797-21.798 2.536-68.798-.495-89-3.558-23.715-12.15-59.899-14.868-62.617-.482-.482-6.573 3.366-13.822 8.731-172.108 127.369-369.872 234.06-560.461 302.36-27.269 9.772-23.916 7.411-32.974 23.224-9.138 15.954-9.786 15.159 8.474 10.385 61.51-16.082 114.987-33.185 181.152-57.935 25.886-9.683 73.577-28.466 82.848-32.63 2.2-.988 10.075-4.379 17.5-7.535 15.491-6.586 35.871-15.575 47.5-20.95l24.5-11.323c70.193-32.44 178.258-90.966 236.5-128.084 10.609-6.761 13.58-8.379 14.216-7.743 2.4 2.4 1.164 52.399-1.924 77.843l-1.181 9.727-21.055 10.932C704.25 977.87 653.37 1003 652.484 1003c-.135 0-6.036 2.748-13.115 6.107-14.169 6.723-58.701 26.513-72.869 32.382-76.58 31.724-146.17 56.453-214 76.045-77.388 22.353-176.908 43.953-235 51.005-3.3.401-6.956 1.086-8.124 1.522-2 .747-7.895 9.753-6.982 10.667 1.041 1.04 51.456-2.891 87.106-6.792 74.294-8.13 168.239-26.12 239.43-45.849 4.087-1.133 7.553-1.937 7.703-1.787.15.15-.916 2.675-2.369 5.611-2.592 5.237-2.606 5.366-.703 6.776 3.148 2.332 25.156 12.757 35.655 16.89 5.344 2.103 9.619 3.914 9.5 4.024-.45.417-41.003 8.535-59.216 11.854-110.243 20.09-223.997 29.346-310.5 25.267l-16.5-.778-6.848 12.096c-3.767 6.654-6.692 12.209-6.5 12.347.191.137 18.573 1.913 40.848 3.945s57.375 5.274 78 7.205c20.625 1.93 44.7 4.159 53.5 4.953 8.8.794 30.625 2.819 48.5 4.5s46.9 4.39 64.5 6.021c17.6 1.631 46.4 4.31 64 5.954 52.537 4.908 116.921 10.91 151 14.077 17.6 1.636 46.625 4.339 64.5 6.008 17.875 1.669 46.675 4.345 64 5.947 17.325 1.602 41.4 3.861 53.5 5.02 27.821 2.664 25.374 2.681 55.5-.377 14.025-1.424 55.65-5.537 92.5-9.14 141.058-13.794 216.454-21.19 305.5-29.968 46.489-4.583 93.359-9.178 148.5-14.56 17.05-1.664 42.25-4.153 56-5.531a9444.898 9444.898 0 0 1 40.5-3.975c22.626-2.144 27-2.667 27-3.228 0-.277-3.669-6.856-8.154-14.621a70460.171 70460.171 0 0 1-35.814-62.117c-.948-1.65-8.364-14.475-16.48-28.5-8.117-14.025-18.384-31.8-22.816-39.5a4078.108 4078.108 0 0 0-14.224-24.5 1545.921 1545.921 0 0 1-11.512-20 1406.617 1406.617 0 0 0-11.536-20c-3.403-5.775-15.784-27.15-27.514-47.5a96272.043 96272.043 0 0 0-35.766-62c-7.942-13.75-15.581-27.025-16.976-29.5-1.395-2.475-5.304-9.225-8.687-15-3.384-5.775-8.584-14.663-11.556-19.75-2.971-5.087-5.72-9.25-6.108-9.25-.388 0-12.327 7.343-26.531 16.319-52.286 33.037-101.249 61.902-151.326 89.208-27.077 14.765-59.482 31.473-61.042 31.473-.903 0-10.151-1.332-20.55-2.959-30.501-4.773-86.034-10.703-114.908-12.27l-5-.271 23.5-12.892c12.925-7.09 27.325-15.108 32-17.818 4.675-2.709 9.37-5.401 10.434-5.982 1.064-.58 9.614-5.558 19-11.061 9.386-5.504 18.416-10.779 20.066-11.723 55.377-31.682 153.538-97.625 211.771-142.264l11.771-9.023-2.908-5.119c-1.599-2.815-8.65-15.018-15.669-27.118-7.018-12.1-14.353-24.812-16.299-28.25-1.946-3.437-3.918-6.25-4.382-6.25-.465 0-4.543 3.194-9.064 7.097-47.351 40.882-105.67 85.877-164.72 127.087-16.066 11.212-73.244 49.478-79.75 53.371-1.787 1.07-13.037 8.084-25 15.588-39.217 24.6-46.096 28.505-44.948 25.512 3.524-9.182 5.572-62.806 3.348-87.658l-.851-9.503 8.351-5.949c37.579-26.775 89.931-67.549 130.042-101.285 12.947-10.889 48.468-41.697 49.808-43.2.275-.308 5.675-5.281 12-11.052s12.426-11.396 13.557-12.5c1.132-1.104 5.182-4.906 9-8.448 3.819-3.542 15.383-14.746 25.699-24.898l18.755-18.458-17.637-30.602c-21.124-36.652-22.461-38.982-26.604-46.352-1.777-3.163-3.69-5.732-4.251-5.71-.56.022-5.191 4.86-10.289 10.75M818.635 961.22c-.979 2.904-2.621 7.305-3.648 9.78-1.027 2.475-2.991 7.425-4.366 11-6.254 16.268-24.202 53.576-34.321 71.346-18.046 31.687-42.896 70.703-58.382 91.66-11.12 15.049-16.918 23.351-16.918 24.223 0 1.282 42.925.264 75.258-1.783 154.041-9.756 279.18-55.075 283.496-102.667 4.27-47.088-84.797-88.082-235.296-108.296l-4.041-.543-1.782 5.28m12.068 10.868c-3.188 1.645-6.058 3.761-6.378 4.702-5.196 15.288-26.16 59.949-38.297 81.589-3.357 5.984-5.973 11.001-5.815 11.149.158.148 3.662-1.037 7.787-2.634 4.125-1.596 9.975-3.862 13-5.035 3.025-1.173 6.85-2.724 8.5-3.446 1.65-.722 8.85-3.614 16-6.426 21.525-8.466 65.063-27.076 89.5-38.256 3.575-1.635 9.656-4.42 13.513-6.187 18.41-8.438 25.487-11.927 25.487-12.567 0-2.944-61.001-17.114-101.13-23.493-18.435-2.93-15.147-3.019-22.167.604m-111.666 52.561c-4.105 1.916-16.48 7.316-27.5 11.999-11.021 4.684-21.455 9.154-23.188 9.934-1.733.78-8.483 3.445-15 5.923-6.517 2.478-12.603 4.936-13.524 5.462-2.708 1.546-58.472 22.208-81.825 30.318-28.567 9.92-74.699 24.599-95 30.227-5.225 1.449-9.874 2.998-10.331 3.442-1.901 1.848 42.119 14.105 72.295 20.131l16.014 3.198 12.761-3.259c51.06-13.037 144.356-41.415 146.926-44.69 3.104-3.954 27.335-70.643 27.335-75.23 0-1.54-.545-1.386-8.963 2.545" fill-rule="evenodd"/><path fill="#05933c" stroke="#05933c" d="M782.147 4.137c-.735 1.175-2.193 3.65-3.241 5.5a793.324 793.324 0 0 1-3.797 6.613c-1.04 1.788-7.604 13.15-14.587 25.25S746.365 65.975 744.579 69c-1.787 3.025-5.82 10-8.963 15.5-3.144 5.5-6.133 10.675-6.643 11.5-.51.825-3.129 5.325-5.821 10-2.691 4.675-7.503 13-10.692 18.5s-7.444 12.925-9.455 16.5c-2.011 3.575-10.56 18.425-18.998 33a90508.17 90508.17 0 0 0-49.743 86c-9.374 16.225-20.298 35.125-24.276 42-3.979 6.875-12.41 21.5-18.736 32.5-6.327 11-13.638 23.6-16.249 28-2.61 4.4-5.88 10.025-7.267 12.5-3.712 6.625-31.098 54.082-32.893 57-.846 1.375-4.104 7-7.24 12.5s-6.122 10.675-6.635 11.5c-.512.825-4.812 8.25-9.554 16.5s-10.311 17.925-12.376 21.5c-10.979 19.008-15.471 26.808-23.031 40-4.571 7.975-10.482 18.174-13.136 22.663-4.117 6.966-20.475 35.329-25.859 44.837-.934 1.65-9.017 15.6-17.963 31-8.945 15.4-24.149 41.725-33.786 58.5s-17.855 30.95-18.262 31.5c-.407.55-7.83 13.375-16.496 28.5-8.666 15.125-17.875 31.1-20.464 35.5-2.588 4.4-7.279 12.5-10.423 18-3.145 5.5-6.135 10.675-6.645 11.5-.51.825-3.129 5.325-5.821 10-2.691 4.675-7.49 13-10.664 18.5-3.174 5.5-10.94 19-17.257 30a7505.48 7505.48 0 0 1-20.526 35.5c-7.788 13.355-24.345 42.068-29.696 51.5-5.457 9.619-24.647 42.701-26.974 46.5-7.565 12.353-27.227 47.141-26.854 47.515.389.389 17.646-6.252 33.819-13.014 22.717-9.498 71.613-32.963 98.689-47.36C370.928 961.515 432.345 923.862 498 878.466c9.253-6.398 19.863-13.943 21.583-15.348.596-.487 4.421-3.256 8.5-6.154 6.265-4.45 37.223-27.581 51.645-38.587 4.87-3.717 19.319-15.177 33.772-26.787 22.497-18.073 73.946-61.839 88.347-75.156l3.347-3.095-9.954-17.92c-5.475-9.855-10.983-19.719-12.241-21.919-47.97-83.907-60.691-132.744-50.421-193.577 10.07-59.65 46.382-126.959 110.819-205.423 7.679-9.35 14.958-18.125 16.175-19.5 1.218-1.375 7.1-8.1 13.071-14.945 15.972-18.307 38.806-42.579 64.26-68.305 21.817-22.05 29.912-29.162 18.946-16.644-29.389 33.546-63.434 79.221-86.76 116.394-37.719 60.113-58.416 120.583-59.813 174.753-1.42 55.053 12.737 99.985 56.16 178.247 5.799 10.45 10.547 19.337 10.553 19.75.006.413.381.75.834.75 1.018 0 55.18-54.902 62.677-63.533.55-.633 5.54-6.06 11.089-12.059 24.183-26.147 49.57-54.665 60.911-68.424 2.2-2.669 11.662-13.995 21.027-25.168 9.364-11.174 21.316-25.716 26.558-32.316 22.819-28.727 29.034-36.672 37.305-47.697l8.775-11.697-11.94-20.803a20217.367 20217.367 0 0 0-17.711-30.803c-3.175-5.5-7.975-13.825-10.666-18.5-2.692-4.675-5.313-9.175-5.825-10-.512-.825-4.286-7.35-8.387-14.5-4.101-7.15-13.843-24.025-21.649-37.5-7.806-13.475-15.342-26.525-16.747-29-1.404-2.475-7.134-12.375-12.732-22a8794.852 8794.852 0 0 1-22.506-39c-6.78-11.825-14.208-24.65-16.508-28.5-3.847-6.442-21.546-37.084-38.989-67.5a7602.876 7602.876 0 0 0-18.513-32c-6.24-10.725-12.953-22.308-14.918-25.741-4.023-7.025-4.087-7.069-5.927-4.122m276.125 498.636c-24.023 27.923-79.725 85.321-113.298 116.747a10862.878 10862.878 0 0 0-16 15.01c-4.111 3.866-11.263 10.391-15.893 14.5-4.631 4.108-9.581 8.539-11 9.846-9.475 8.723-44.007 38.58-61.831 53.46-11.687 9.757-21.25 17.877-21.25 18.044 0 .168 2.056 6.113 4.568 13.212 22.438 63.405 22.94 130.624 1.494 199.781-1.684 5.43-3.062 10.268-3.062 10.75 0 .482 5.063.878 11.25.879 13.694.003 59.847 2.499 83.75 4.53 173.472 14.738 308.265 60.438 322.648 109.389 15.298 52.062-91.458 99.821-267.148 119.512-66.051 7.403-174.605 10.248-232.5 6.093-4.125-.296-17.176-1.251-29.002-2.122-11.827-.872-22.686-1.432-24.133-1.244-2.05.265-5.833 4.357-17.145 18.547-20.653 25.908-41.173 50.361-41.492 49.444-.149-.43 2.185-4.803 5.188-9.716 3.004-4.914 10.964-18.61 17.691-30.435a40601.064 40601.064 0 0 1 14.606-25.664c2.814-4.931 2.863-4.89-6.713-5.756-6.356-.576-32.299-4.129-55.772-7.64-7.312-1.094-35.894-6.527-41.728-7.932-2.2-.53-9.175-2.144-15.5-3.586-34.116-7.78-69.13-19.647-94.986-32.192-13.035-6.324-13.295-7.798-.586-3.312 50.741 17.91 131.728 31.826 201.072 34.551 8.25.324 17.79.835 21.2 1.134l6.199.545 8.422-17.324c22.485-46.254 36.4-80.438 48.155-118.3 26.592-85.651 28.94-165.593 6.869-233.774-2.768-8.55-2.605-8.349-5.084-6.279-4.705 3.928-29.922 22.175-61.761 44.688-45.841 32.414-133.585 87.668-180.298 113.538-2.586 1.432-12.127 6.742-21.202 11.798-72.003 40.123-162.579 83.343-236 112.612-6.875 2.741-13.4 5.389-14.5 5.884-6.904 3.112-46.736 18.078-69.956 26.286l-11.956 4.225-7.726 13.484c-4.249 7.416-7.619 13.59-7.489 13.721.857.856 43.614-11.052 92.627-25.796 19.225-5.783 94.555-31.835 109.157-37.75 4.039-1.636 17.468-6.894 29.843-11.684 12.375-4.79 26.775-10.495 32-12.679 45.421-18.977 67.509-28.728 110-48.56 28.062-13.097 88.176-43.421 107.405-54.178 1.702-.952 7.595-4.123 13.095-7.047 26.914-14.308 76.113-42.953 112.882-65.724 6.535-4.048 12.16-7.081 12.5-6.742 2.575 2.57.735 64.649-2.538 85.613l-.571 3.66-39.636 19.899c-39.349 19.754-44.829 22.394-82.637 39.8-37.716 17.363-112.889 48.037-149.5 61.002-53.191 18.836-112.849 37.694-150.5 47.575-75.052 19.694-140.647 33.242-203.336 41.995-8.084 1.129-8.424 1.286-11.25 5.187-4.553 6.284-4.452 6.34 9.836 5.497 100.845-5.951 198.86-22.134 307.91-50.838 15.172-3.993 14.862-4.062 11.434 2.544-2.042 3.935-2.526 5.743-1.719 6.409 2.196 1.811 25.288 12.848 35.907 17.162 7.804 3.171 10.276 4.567 8.951 5.058-4.091 1.513-59.695 12.121-88.233 16.832-46.377 7.657-76.001 11.34-137 17.032-35.5 3.313-124.81 4.948-150.545 2.756l-9.046-.771-6.712 11.68c-3.692 6.423-6.529 11.862-6.305 12.086.405.405 4.292.812 35.608 3.724 94.648 8.803 126.882 11.805 140.5 13.086 38.461 3.62 131.778 12.245 167.5 15.483 6.325.573 13.121 1.248 15.103 1.5 1.982.252 13.682 1.358 26 2.457a9848.35 9848.35 0 0 1 43.397 3.986c11.55 1.093 59.925 5.598 107.5 10.011 47.575 4.413 93.7 8.711 102.5 9.552 8.8.841 21.175 1.99 27.5 2.555 6.325.564 18.337 1.695 26.694 2.513 11.777 1.153 17.512 1.256 25.5.456 9.597-.96 65.276-6.439 163.306-16.069 22.55-2.215 59-5.798 81-7.961 22-2.164 56.425-5.536 76.5-7.494 40.347-3.934 44.586-4.351 117-11.492 27.775-2.739 71.65-7.03 97.5-9.535 25.85-2.505 53.075-5.173 60.5-5.929 7.425-.756 31.162-3.101 52.75-5.211 21.588-2.109 39.25-4.164 39.25-4.566 0-.401-2.187-4.456-4.859-9.01-2.673-4.555-5.987-10.306-7.366-12.781-1.378-2.475-6.688-11.7-11.798-20.5-16.398-28.235-27.091-46.747-32.923-57-5.282-9.284-23.31-40.49-32.065-55.5a4839.014 4839.014 0 0 1-11.64-20.161 8304.62 8304.62 0 0 0-9.787-17c-4.923-8.485-16.404-28.39-29.036-50.339-7.596-13.2-14.647-25.194-15.669-26.654-1.021-1.46-1.857-2.917-1.857-3.238 0-.321-2.864-5.426-6.364-11.346-3.5-5.919-12.568-21.562-20.15-34.762a9047.283 9047.283 0 0 0-25.636-44.303c-6.518-11.167-11.85-20.514-11.85-20.772 0-.257-1.162-2.224-2.582-4.37l-2.582-3.901-16.759 10.673c-9.217 5.87-17.618 11.206-18.668 11.858-1.05.651-5.284 3.31-9.409 5.909-18.15 11.435-70.272 42.583-84 50.198-2.475 1.373-11.025 6.188-19 10.699s-17.2 9.677-20.5 11.478c-27.216 14.861-43.113 23.328-55.58 29.602l-14.581 7.338-10.419-1.867c-8.375-1.501-39.947-5.752-63.42-8.54-10.704-1.271-61.45-5.482-66.25-5.498-.687-.002-1.25-.454-1.25-1.004s.433-1 .962-1c.529 0 8.067-3.894 16.75-8.654 8.684-4.76 18.038-9.88 20.788-11.378 6.391-3.481 15.563-8.718 17.5-9.993.825-.543 2.147-1.291 2.938-1.661 18.588-8.696 120.844-72.192 166.562-103.427a35865.51 35865.51 0 0 1 24.5-16.728c15.46-10.532 65.742-47.492 75.335-55.376l2.834-2.33-9.436-16.476c-12.277-21.438-20.039-34.874-24.964-43.211l-3.977-6.733-8.146 7.047c-39.527 34.196-105.751 86.132-136.616 107.142-1.392.947-5.005 3.542-8.03 5.766-3.025 2.225-8.65 6.214-12.5 8.864-3.85 2.651-11.95 8.315-18 12.586-12.768 9.015-56.084 37.824-68.5 45.559-4.675 2.912-11.425 7.197-15 9.521-18.363 11.936-56.091 34.724-56.618 34.198-.251-.252.222-5.128 1.051-10.837 4.228-29.11 4.599-60.399 1.001-84.461l-.611-4.083 11.104-7.917c15.891-11.332 50.317-37.139 65.923-49.418 7.339-5.775 14.831-11.625 16.648-13 6.163-4.664 46.901-38.226 48.502-39.959.275-.297 3.2-2.782 6.5-5.52 7.729-6.414 36.067-31.223 44.556-39.009l18-16.501c16.616-15.231 55.944-53.487 55.944-54.42 0-.225-8.377-14.963-18.615-32.75a24535.777 24535.777 0 0 1-23.612-41.091c-2.749-4.812-5.06-8.74-5.136-8.727-.075.012-4.29 4.85-9.365 10.75m-237.774 455.23c-.341.552-2.358 5.84-4.481 11.75-18.482 51.443-60.827 126.646-104.028 184.747-3.681 4.95-7.533 10.31-8.561 11.911l-1.869 2.91 31.471-.643c45.534-.932 80.863-3.879 122.97-10.26 102.422-15.519 183.245-48.7 199.558-81.925 4.381-8.924 4.296-21.136-.215-30.657-17.857-37.691-101.092-70.76-219.767-87.312-12.886-1.798-14.26-1.845-15.078-.521m9.169 13.838c-4.761 2.619-4.92 2.869-10.633 16.659-8.731 21.074-10.735 25.443-20.645 45-8.444 16.664-14.989 28.824-18.411 34.205-2.617 4.114-.745 3.825 11.717-1.809 2.307-1.043 4.45-1.896 4.762-1.896.312 0 8.549-3.204 18.305-7.12a6921.558 6921.558 0 0 1 22.583-9.032c4.624-1.825 43.835-18.505 59.655-25.377 6.796-2.952 15.069-6.728 48.24-22.02 5.908-2.723 10.742-5.176 10.745-5.451.02-2.623-58.609-16.535-96.804-22.97-21.454-3.614-23.269-3.626-29.514-.189M720 1023.678c-4.125 1.933-14.925 6.646-24 10.473-9.075 3.828-18.975 8.027-22 9.331-3.025 1.305-9.1 3.795-13.5 5.534-4.4 1.739-9.888 4.022-12.195 5.073-2.307 1.051-4.437 1.911-4.732 1.911-.294 0-5.832 2.058-12.304 4.573-22.959 8.921-31.951 12.336-47.269 17.954-27.694 10.156-65.765 22.819-97.5 32.43-9.35 2.832-20.625 6.25-25.057 7.596-4.431 1.346-8.567 2.447-9.19 2.447-4.299 0-.667 2.259 8.009 4.983 5.631 1.767 12.263 3.88 14.738 4.696 11.341 3.737 52.555 12.893 62.783 13.948 6.057.625 11.822-.678 50.217-11.356 25.836-7.185 31.569-8.837 46-13.254 7.425-2.273 16.65-5.044 20.5-6.157 3.85-1.114 15.949-5.025 26.887-8.692l19.887-6.668 4.771-12c8.992-22.617 10.246-26.033 15.975-43.5 6.414-19.556 7.363-23.037 6.249-22.918-.423.045-4.144 1.664-8.269 3.596" fill-rule="evenodd"/></svg>